<?xml version="1.0" encoding="UTF-8"?><!DOCTYPE svg PUBLIC "-//W3C//DTD SVG 1.1//EN" "http://www.w3.org/Graphics/SVG/1.1/DTD/svg11.dtd"><svg xmlns="http://www.w3.org/2000/svg" xmlns:xlink="http://www.w3.org/1999/xlink" version="1.1" id="Layer_7" x="0px" y="0px" width="128px" height="128px" viewBox="0 0 128 128" xml:space="preserve"><path fill="#3B4652" d="M72.691 104.835l-2.104.001a120.295 120.295 0 0 0-1.05 3.543c11.926.917 22.785 4.391 22.785 7.919 0 4.251-12.706 7.708-28.323 7.708s-28.323-3.457-28.323-7.708c0-3.502 10.823-6.665 22.621-7.603a91.324 91.324 0 0 0-1.063-3.852l-2.09.001C35.671 105.959 21 110.671 21 116.298 21 122.75 40.29 128 64 128s43-5.25 43-11.702c0-5.643-14.75-10.364-34.309-11.463z"/><path fill="#2B79C2" d="M69.219 109.548a96.134 96.134 0 0 0-.867 3.504c4.871.484 8.355 1.753 8.355 3.246 0 1.911-5.689 3.459-12.707 3.459s-12.707-1.548-12.707-3.459c0-1.455 3.307-2.698 7.982-3.209a73.263 73.263 0 0 0-.689-3.216c-9.596.873-18.697 3.531-18.697 6.425 0 3.619 10.816 6.563 24.111 6.563s24.111-2.945 24.111-6.563c0-2.923-9.151-5.896-18.892-6.75z"/><path fill="#2B79C2" d="M63.755 0C43.438 0 26.904 16.422 26.904 36.61c0 12.015 7.529 22.888 14.808 33.404 2.759 3.985 5.364 7.748 7.585 11.571 10.563 18.174 12.348 33.542 12.365 33.695a2.096 2.096 0 0 0 2.041 1.864c.018.002.035.002.053.002a2.101 2.101 0 0 0 2.078-1.766c.023-.15 2.577-15.551 12.414-33.859 2.34-4.357 5.398-8.797 8.354-13.092 6.885-10.004 14.004-20.346 14.004-31.823C100.605 16.422 84.074 0 63.755 0zm0 49.159c-7.853 0-14.213-6.324-14.213-14.12 0-7.795 6.36-14.12 14.213-14.12s14.214 6.325 14.214 14.12c0 7.796-6.36 14.12-14.214 14.12z"/><metadata><rdf:RDF xmlns:rdf="http://www.w3.org/1999/02/22-rdf-syntax-ns#" xmlns:rdfs="http://www.w3.org/2000/01/rdf-schema#" xmlns:dc="http://purl.org/dc/elements/1.1/"><rdf:Description about="https://iconscout.com/legal#licenses" dc:title="tracking,map,location" dc:description="tracking,map,location" dc:publisher="Iconscout" dc:date="2017-09-02" dc:format="image/svg+xml" dc:language="en"><dc:creator><rdf:Bag><rdf:li>Mahira Modanwal</rdf:li></rdf:Bag></dc:creator></rdf:Description></rdf:RDF></metadata></svg>